<svg width="155" height="96" viewBox="0 0 155 96" fill="none" xmlns="http://www.w3.org/2000/svg">
<rect x="32" y="28" width="123" height="40" rx="8" fill="#3974B8"/>
<path d="M53.7273 54H49.2912V40.9091H53.8168C55.1165 40.9091 56.233 41.1712 57.1662 41.6953C58.1037 42.2152 58.8239 42.9631 59.3267 43.9389C59.8295 44.9148 60.081 46.0824 60.081 47.4418C60.081 48.8054 59.8274 49.9773 59.3203 50.9574C58.8175 51.9375 58.0909 52.6896 57.1406 53.2138C56.1946 53.7379 55.0568 54 53.7273 54ZM51.6626 51.9482H53.6122C54.5241 51.9482 55.2848 51.782 55.8942 51.4496C56.5036 51.1129 56.9616 50.6122 57.2685 49.9474C57.5753 49.2784 57.7287 48.4432 57.7287 47.4418C57.7287 46.4403 57.5753 45.6094 57.2685 44.9489C56.9616 44.2841 56.5078 43.7876 55.907 43.4595C55.3104 43.1271 54.5689 42.9609 53.6825 42.9609H51.6626V51.9482ZM62.2319 54V44.1818H64.5458V54H62.2319ZM63.3952 42.7884C63.0288 42.7884 62.7134 42.6669 62.4492 42.424C62.185 42.1768 62.0529 41.8807 62.0529 41.5355C62.0529 41.1861 62.185 40.8899 62.4492 40.647C62.7134 40.3999 63.0288 40.2763 63.3952 40.2763C63.766 40.2763 64.0813 40.3999 64.3413 40.647C64.6055 40.8899 64.7376 41.1861 64.7376 41.5355C64.7376 41.8807 64.6055 42.1768 64.3413 42.424C64.0813 42.6669 63.766 42.7884 63.3952 42.7884ZM74.6852 46.777L72.5758 47.0071C72.5162 46.794 72.4118 46.5938 72.2626 46.4062C72.1177 46.2188 71.9217 46.0675 71.6745 45.9524C71.4274 45.8374 71.1248 45.7798 70.7669 45.7798C70.2853 45.7798 69.8805 45.8842 69.5524 46.093C69.2285 46.3018 69.0687 46.5724 69.073 46.9048C69.0687 47.1903 69.1731 47.4226 69.3862 47.6016C69.6035 47.7805 69.9615 47.9276 70.4601 48.0426L72.1348 48.4006C73.0637 48.6009 73.7541 48.9183 74.2058 49.353C74.6618 49.7876 74.8919 50.3565 74.8961 51.0597C74.8919 51.6776 74.7108 52.223 74.3528 52.696C73.9991 53.1648 73.5069 53.5312 72.8762 53.7955C72.2456 54.0597 71.5211 54.1918 70.7029 54.1918C69.5012 54.1918 68.5339 53.9403 67.801 53.4375C67.068 52.9304 66.6312 52.2251 66.4906 51.3217L68.747 51.1044C68.8493 51.5476 69.0666 51.8821 69.399 52.108C69.7314 52.3338 70.1639 52.4467 70.6966 52.4467C71.2463 52.4467 71.6873 52.3338 72.0197 52.108C72.3564 51.8821 72.5247 51.603 72.5247 51.2706C72.5247 50.9893 72.416 50.7571 72.1987 50.5739C71.9856 50.3906 71.6532 50.25 71.2015 50.152L69.5268 49.8004C68.585 49.6044 67.8883 49.2741 67.4366 48.8097C66.9849 48.3409 66.7612 47.7486 66.7654 47.0327C66.7612 46.4276 66.9252 45.9034 67.2576 45.4602C67.5943 45.0128 68.0609 44.6676 68.6575 44.4247C69.2583 44.1776 69.9508 44.054 70.7349 44.054C71.8855 44.054 72.791 44.299 73.4515 44.7891C74.1163 45.2791 74.5275 45.9418 74.6852 46.777ZM81.0868 54.1918C80.1067 54.1918 79.2651 53.9766 78.562 53.5462C77.8631 53.1158 77.324 52.5213 76.9448 51.7628C76.5698 51 76.3823 50.1222 76.3823 49.1293C76.3823 48.1321 76.574 47.2521 76.9576 46.4893C77.3411 45.7223 77.8823 45.1257 78.5811 44.6996C79.2843 44.2692 80.1152 44.054 81.074 44.054C81.8709 44.054 82.5762 44.201 83.1898 44.495C83.8077 44.7848 84.2999 45.196 84.6664 45.7287C85.0328 46.2571 85.2417 46.875 85.2928 47.5824H83.0811C82.9917 47.1094 82.7786 46.7152 82.4419 46.3999C82.1096 46.0803 81.6642 45.9205 81.106 45.9205C80.633 45.9205 80.2175 46.0483 79.8596 46.304C79.5016 46.5554 79.2225 46.9176 79.0222 47.3906C78.8262 47.8636 78.7282 48.4304 78.7282 49.0909C78.7282 49.7599 78.8262 50.3352 79.0222 50.8168C79.2182 51.294 79.4931 51.6626 79.8468 51.9226C80.2047 52.1783 80.6245 52.3061 81.106 52.3061C81.4469 52.3061 81.7516 52.2422 82.0201 52.1143C82.2928 51.9822 82.5208 51.7926 82.704 51.5455C82.8873 51.2983 83.013 50.9979 83.0811 50.6442H85.2928C85.2374 51.3388 85.0328 51.9545 84.6792 52.4915C84.3255 53.0241 83.8439 53.4418 83.2346 53.7443C82.6252 54.0426 81.9093 54.1918 81.0868 54.1918ZM91.4755 54.1918C90.5167 54.1918 89.6857 53.9808 88.9826 53.5589C88.2795 53.1371 87.734 52.5469 87.3462 51.7884C86.9627 51.0298 86.771 50.1435 86.771 49.1293C86.771 48.1151 86.9627 47.2266 87.3462 46.4638C87.734 45.701 88.2795 45.1087 88.9826 44.6868C89.6857 44.2649 90.5167 44.054 91.4755 44.054C92.4343 44.054 93.2653 44.2649 93.9684 44.6868C94.6715 45.1087 95.2148 45.701 95.5984 46.4638C95.9862 47.2266 96.18 48.1151 96.18 49.1293C96.18 50.1435 95.9862 51.0298 95.5984 51.7884C95.2148 52.5469 94.6715 53.1371 93.9684 53.5589C93.2653 53.9808 92.4343 54.1918 91.4755 54.1918ZM91.4883 52.3381C92.0082 52.3381 92.4428 52.1953 92.7923 51.9098C93.1417 51.62 93.4016 51.2322 93.5721 50.7464C93.7468 50.2607 93.8342 49.7195 93.8342 49.1229C93.8342 48.522 93.7468 47.9787 93.5721 47.4929C93.4016 47.0028 93.1417 46.6129 92.7923 46.3232C92.4428 46.0334 92.0082 45.8885 91.4883 45.8885C90.9556 45.8885 90.5124 46.0334 90.1587 46.3232C89.8093 46.6129 89.5472 47.0028 89.3725 47.4929C89.2021 47.9787 89.1168 48.522 89.1168 49.1229C89.1168 49.7195 89.2021 50.2607 89.3725 50.7464C89.5472 51.2322 89.8093 51.62 90.1587 51.9098C90.5124 52.1953 90.9556 52.3381 91.4883 52.3381ZM98.144 54V44.1818H100.388V45.8182H100.49C100.669 45.2514 100.976 44.8146 101.41 44.5078C101.849 44.1967 102.35 44.0412 102.912 44.0412C103.04 44.0412 103.183 44.0476 103.341 44.0604C103.503 44.0689 103.637 44.0838 103.743 44.1051V46.2337C103.645 46.1996 103.49 46.1697 103.277 46.1442C103.068 46.1143 102.866 46.0994 102.67 46.0994C102.248 46.0994 101.868 46.1911 101.532 46.3743C101.199 46.5533 100.937 46.8026 100.746 47.1222C100.554 47.4418 100.458 47.8104 100.458 48.228V54H98.144ZM108.52 54.1726C107.749 54.1726 107.058 53.9744 106.449 53.5781C105.839 53.1818 105.358 52.6065 105.004 51.8523C104.651 51.098 104.474 50.1818 104.474 49.1037C104.474 48.0128 104.653 47.0923 105.011 46.3423C105.373 45.5881 105.861 45.0192 106.474 44.6357C107.088 44.2479 107.772 44.054 108.526 44.054C109.102 44.054 109.575 44.152 109.945 44.348C110.316 44.5398 110.61 44.772 110.827 45.0447C111.045 45.3132 111.213 45.5668 111.332 45.8054H111.428V40.9091H113.749V54H111.473V52.4531H111.332C111.213 52.6918 111.04 52.9453 110.815 53.2138C110.589 53.478 110.29 53.7038 109.92 53.8913C109.549 54.0788 109.082 54.1726 108.52 54.1726ZM109.165 52.2741C109.656 52.2741 110.073 52.142 110.418 51.8778C110.763 51.6094 111.026 51.2365 111.205 50.7592C111.384 50.282 111.473 49.7259 111.473 49.0909C111.473 48.456 111.384 47.9041 111.205 47.4354C111.03 46.9666 110.77 46.6023 110.425 46.3423C110.084 46.0824 109.664 45.9524 109.165 45.9524C108.65 45.9524 108.219 46.0866 107.874 46.3551C107.529 46.6236 107.269 46.9943 107.094 47.4673C106.92 47.9403 106.832 48.4815 106.832 49.0909C106.832 49.7045 106.92 50.2521 107.094 50.7337C107.273 51.2109 107.536 51.5881 107.881 51.8651C108.23 52.1378 108.658 52.2741 109.165 52.2741Z" fill="white"/>
<path d="M124 48H139M139 48L133 42M139 48L133 54" stroke="white" stroke-width="2"/>
</svg>
