<svg width="133" height="96" viewBox="0 0 133 96" fill="none" xmlns="http://www.w3.org/2000/svg">
<rect x="8" y="28" width="125" height="40" rx="8" fill="#3974B8"/>
<path d="M29.7273 54H25.2912V40.9091H29.8168C31.1165 40.9091 32.233 41.1712 33.1662 41.6953C34.1037 42.2152 34.8239 42.9631 35.3267 43.9389C35.8295 44.9148 36.081 46.0824 36.081 47.4418C36.081 48.8054 35.8274 49.9773 35.3203 50.9574C34.8175 51.9375 34.0909 52.6896 33.1406 53.2138C32.1946 53.7379 31.0568 54 29.7273 54ZM27.6626 51.9482H29.6122C30.5241 51.9482 31.2848 51.782 31.8942 51.4496C32.5036 51.1129 32.9616 50.6122 33.2685 49.9474C33.5753 49.2784 33.7287 48.4432 33.7287 47.4418C33.7287 46.4403 33.5753 45.6094 33.2685 44.9489C32.9616 44.2841 32.5078 43.7876 31.907 43.4595C31.3104 43.1271 30.5689 42.9609 29.6825 42.9609H27.6626V51.9482ZM38.2319 54V44.1818H40.5458V54H38.2319ZM39.3952 42.7884C39.0288 42.7884 38.7134 42.6669 38.4492 42.424C38.185 42.1768 38.0529 41.8807 38.0529 41.5355C38.0529 41.1861 38.185 40.8899 38.4492 40.647C38.7134 40.3999 39.0288 40.2763 39.3952 40.2763C39.766 40.2763 40.0813 40.3999 40.3413 40.647C40.6055 40.8899 40.7376 41.1861 40.7376 41.5355C40.7376 41.8807 40.6055 42.1768 40.3413 42.424C40.0813 42.6669 39.766 42.7884 39.3952 42.7884ZM50.6852 46.777L48.5758 47.0071C48.5162 46.794 48.4118 46.5938 48.2626 46.4062C48.1177 46.2188 47.9217 46.0675 47.6745 45.9524C47.4274 45.8374 47.1248 45.7798 46.7669 45.7798C46.2853 45.7798 45.8805 45.8842 45.5524 46.093C45.2285 46.3018 45.0687 46.5724 45.073 46.9048C45.0687 47.1903 45.1731 47.4226 45.3862 47.6016C45.6035 47.7805 45.9615 47.9276 46.4601 48.0426L48.1348 48.4006C49.0637 48.6009 49.7541 48.9183 50.2058 49.353C50.6618 49.7876 50.8919 50.3565 50.8961 51.0597C50.8919 51.6776 50.7108 52.223 50.3528 52.696C49.9991 53.1648 49.5069 53.5312 48.8762 53.7955C48.2456 54.0597 47.5211 54.1918 46.7029 54.1918C45.5012 54.1918 44.5339 53.9403 43.801 53.4375C43.068 52.9304 42.6312 52.2251 42.4906 51.3217L44.747 51.1044C44.8493 51.5476 45.0666 51.8821 45.399 52.108C45.7314 52.3338 46.1639 52.4467 46.6966 52.4467C47.2463 52.4467 47.6873 52.3338 48.0197 52.108C48.3564 51.8821 48.5247 51.603 48.5247 51.2706C48.5247 50.9893 48.416 50.7571 48.1987 50.5739C47.9856 50.3906 47.6532 50.25 47.2015 50.152L45.5268 49.8004C44.585 49.6044 43.8883 49.2741 43.4366 48.8097C42.9849 48.3409 42.7612 47.7486 42.7654 47.0327C42.7612 46.4276 42.9252 45.9034 43.2576 45.4602C43.5943 45.0128 44.0609 44.6676 44.6575 44.4247C45.2583 44.1776 45.9508 44.054 46.7349 44.054C47.8855 44.054 48.791 44.299 49.4515 44.7891C50.1163 45.2791 50.5275 45.9418 50.6852 46.777ZM57.0868 54.1918C56.1067 54.1918 55.2651 53.9766 54.562 53.5462C53.8631 53.1158 53.324 52.5213 52.9448 51.7628C52.5698 51 52.3823 50.1222 52.3823 49.1293C52.3823 48.1321 52.574 47.2521 52.9576 46.4893C53.3411 45.7223 53.8823 45.1257 54.5811 44.6996C55.2843 44.2692 56.1152 44.054 57.074 44.054C57.8709 44.054 58.5762 44.201 59.1898 44.495C59.8077 44.7848 60.2999 45.196 60.6664 45.7287C61.0328 46.2571 61.2417 46.875 61.2928 47.5824H59.0811C58.9917 47.1094 58.7786 46.7152 58.4419 46.3999C58.1096 46.0803 57.6642 45.9205 57.106 45.9205C56.633 45.9205 56.2175 46.0483 55.8596 46.304C55.5016 46.5554 55.2225 46.9176 55.0222 47.3906C54.8262 47.8636 54.7282 48.4304 54.7282 49.0909C54.7282 49.7599 54.8262 50.3352 55.0222 50.8168C55.2182 51.294 55.4931 51.6626 55.8468 51.9226C56.2047 52.1783 56.6245 52.3061 57.106 52.3061C57.4469 52.3061 57.7516 52.2422 58.0201 52.1143C58.2928 51.9822 58.5208 51.7926 58.704 51.5455C58.8873 51.2983 59.013 50.9979 59.0811 50.6442H61.2928C61.2374 51.3388 61.0328 51.9545 60.6792 52.4915C60.3255 53.0241 59.8439 53.4418 59.2346 53.7443C58.6252 54.0426 57.9093 54.1918 57.0868 54.1918ZM67.4755 54.1918C66.5167 54.1918 65.6857 53.9808 64.9826 53.5589C64.2795 53.1371 63.734 52.5469 63.3462 51.7884C62.9627 51.0298 62.771 50.1435 62.771 49.1293C62.771 48.1151 62.9627 47.2266 63.3462 46.4638C63.734 45.701 64.2795 45.1087 64.9826 44.6868C65.6857 44.2649 66.5167 44.054 67.4755 44.054C68.4343 44.054 69.2653 44.2649 69.9684 44.6868C70.6715 45.1087 71.2148 45.701 71.5984 46.4638C71.9862 47.2266 72.18 48.1151 72.18 49.1293C72.18 50.1435 71.9862 51.0298 71.5984 51.7884C71.2148 52.5469 70.6715 53.1371 69.9684 53.5589C69.2653 53.9808 68.4343 54.1918 67.4755 54.1918ZM67.4883 52.3381C68.0082 52.3381 68.4428 52.1953 68.7923 51.9098C69.1417 51.62 69.4016 51.2322 69.5721 50.7464C69.7468 50.2607 69.8342 49.7195 69.8342 49.1229C69.8342 48.522 69.7468 47.9787 69.5721 47.4929C69.4016 47.0028 69.1417 46.6129 68.7923 46.3232C68.4428 46.0334 68.0082 45.8885 67.4883 45.8885C66.9556 45.8885 66.5124 46.0334 66.1587 46.3232C65.8093 46.6129 65.5472 47.0028 65.3725 47.4929C65.2021 47.9787 65.1168 48.522 65.1168 49.1229C65.1168 49.7195 65.2021 50.2607 65.3725 50.7464C65.5472 51.2322 65.8093 51.62 66.1587 51.9098C66.5124 52.1953 66.9556 52.3381 67.4883 52.3381ZM74.144 54V44.1818H76.3876V45.8182H76.4899C76.6689 45.2514 76.9757 44.8146 77.4103 44.5078C77.8493 44.1967 78.35 44.0412 78.9125 44.0412C79.0403 44.0412 79.1831 44.0476 79.3407 44.0604C79.5027 44.0689 79.6369 44.0838 79.7434 44.1051V46.2337C79.6454 46.1996 79.4899 46.1697 79.2768 46.1442C79.068 46.1143 78.8656 46.0994 78.6696 46.0994C78.2477 46.0994 77.8684 46.1911 77.5318 46.3743C77.1994 46.5533 76.9373 46.8026 76.7456 47.1222C76.5538 47.4418 76.4579 47.8104 76.4579 48.228V54H74.144ZM84.5199 54.1726C83.7486 54.1726 83.0582 53.9744 82.4489 53.5781C81.8395 53.1818 81.358 52.6065 81.0043 51.8523C80.6506 51.098 80.4737 50.1818 80.4737 49.1037C80.4737 48.0128 80.6527 47.0923 81.0107 46.3423C81.3729 45.5881 81.8608 45.0192 82.4744 44.6357C83.0881 44.2479 83.772 44.054 84.5263 44.054C85.1016 44.054 85.5746 44.152 85.9453 44.348C86.3161 44.5398 86.6101 44.772 86.8274 45.0447C87.0447 45.3132 87.2131 45.5668 87.3324 45.8054H87.4283V40.9091H89.7486V54H87.473V52.4531H87.3324C87.2131 52.6918 87.0405 52.9453 86.8146 53.2138C86.5888 53.478 86.2905 53.7038 85.9197 53.8913C85.549 54.0788 85.0824 54.1726 84.5199 54.1726ZM85.1655 52.2741C85.6555 52.2741 86.0732 52.142 86.4183 51.8778C86.7635 51.6094 87.0256 51.2365 87.2045 50.7592C87.3835 50.282 87.473 49.7259 87.473 49.0909C87.473 48.456 87.3835 47.9041 87.2045 47.4354C87.0298 46.9666 86.7699 46.6023 86.4247 46.3423C86.0838 46.0824 85.6641 45.9524 85.1655 45.9524C84.6499 45.9524 84.2195 46.0866 83.8743 46.3551C83.5291 46.6236 83.2692 46.9943 83.0945 47.4673C82.9197 47.9403 82.8324 48.4815 82.8324 49.0909C82.8324 49.7045 82.9197 50.2521 83.0945 50.7337C83.2734 51.2109 83.5355 51.5881 83.8807 51.8651C84.2301 52.1378 84.6584 52.2741 85.1655 52.2741Z" fill="white"/>
<path d="M100 48H115M115 48L109 42M115 48L109 54" stroke="white" stroke-width="2"/>
</svg>
