<svg width="110" height="96" viewBox="0 0 110 96" fill="none" xmlns="http://www.w3.org/2000/svg">
<g clip-path="url(#clip0_402_38)">
<rect x="8.41431" y="28" width="101.414" height="40" rx="8" fill="#3974B8"/>
<path d="M30.1416 54H25.7055V40.9091H30.2311C31.5308 40.9091 32.6473 41.1712 33.5805 41.6953C34.518 42.2152 35.2382 42.9631 35.741 43.9389C36.2439 44.9148 36.4953 46.0824 36.4953 47.4418C36.4953 48.8054 36.2417 49.9773 35.7346 50.9574C35.2318 51.9375 34.5052 52.6896 33.5549 53.2138C32.6089 53.7379 31.4711 54 30.1416 54ZM28.0769 51.9482H30.0265C30.9385 51.9482 31.6991 51.782 32.3085 51.4496C32.9179 51.1129 33.376 50.6122 33.6828 49.9474C33.9896 49.2784 34.143 48.4432 34.143 47.4418C34.143 46.4403 33.9896 45.6094 33.6828 44.9489C33.376 44.2841 32.9221 43.7876 32.3213 43.4595C31.7247 43.1271 30.9832 42.9609 30.0968 42.9609H28.0769V51.9482ZM42.9289 54.1918C41.9701 54.1918 41.1391 53.9808 40.436 53.5589C39.7328 53.1371 39.1874 52.5469 38.7996 51.7884C38.4161 51.0298 38.2243 50.1435 38.2243 49.1293C38.2243 48.1151 38.4161 47.2266 38.7996 46.4638C39.1874 45.701 39.7328 45.1087 40.436 44.6868C41.1391 44.2649 41.9701 44.054 42.9289 44.054C43.8877 44.054 44.7186 44.2649 45.4218 44.6868C46.1249 45.1087 46.6682 45.701 47.0517 46.4638C47.4395 47.2266 47.6334 48.1151 47.6334 49.1293C47.6334 50.1435 47.4395 51.0298 47.0517 51.7884C46.6682 52.5469 46.1249 53.1371 45.4218 53.5589C44.7186 53.9808 43.8877 54.1918 42.9289 54.1918ZM42.9417 52.3381C43.4615 52.3381 43.8962 52.1953 44.2456 51.9098C44.5951 51.62 44.855 51.2322 45.0255 50.7464C45.2002 50.2607 45.2875 49.7195 45.2875 49.1229C45.2875 48.522 45.2002 47.9787 45.0255 47.4929C44.855 47.0028 44.5951 46.6129 44.2456 46.3232C43.8962 46.0334 43.4615 45.8885 42.9417 45.8885C42.409 45.8885 41.9658 46.0334 41.6121 46.3232C41.2627 46.6129 41.0006 47.0028 40.8259 47.4929C40.6554 47.9787 40.5702 48.522 40.5702 49.1229C40.5702 49.7195 40.6554 50.2607 40.8259 50.7464C41.0006 51.2322 41.2627 51.62 41.6121 51.9098C41.9658 52.1953 42.409 52.3381 42.9417 52.3381ZM53.88 54.1918C52.8999 54.1918 52.0583 53.9766 51.3552 53.5462C50.6563 53.1158 50.1173 52.5213 49.738 51.7628C49.363 51 49.1755 50.1222 49.1755 49.1293C49.1755 48.1321 49.3673 47.2521 49.7508 46.4893C50.1343 45.7223 50.6755 45.1257 51.3744 44.6996C52.0775 44.2692 52.9084 44.054 53.8673 44.054C54.6641 44.054 55.3694 44.201 55.983 44.495C56.6009 44.7848 57.0931 45.196 57.4596 45.7287C57.8261 46.2571 58.0349 46.875 58.086 47.5824H55.8744C55.7849 47.1094 55.5718 46.7152 55.2352 46.3999C54.9028 46.0803 54.4575 45.9205 53.8992 45.9205C53.4262 45.9205 53.0107 46.0483 52.6528 46.304C52.2948 46.5554 52.0157 46.9176 51.8154 47.3906C51.6194 47.8636 51.5214 48.4304 51.5214 49.0909C51.5214 49.7599 51.6194 50.3352 51.8154 50.8168C52.0114 51.294 52.2863 51.6626 52.64 51.9226C52.9979 52.1783 53.4177 52.3061 53.8992 52.3061C54.2401 52.3061 54.5448 52.2422 54.8133 52.1143C55.086 51.9822 55.314 51.7926 55.4972 51.5455C55.6805 51.2983 55.8062 50.9979 55.8744 50.6442H58.086C58.0306 51.3388 57.8261 51.9545 57.4724 52.4915C57.1187 53.0241 56.6371 53.4418 56.0278 53.7443C55.4184 54.0426 54.7025 54.1918 53.88 54.1918ZM67.746 46.777L65.6366 47.0071C65.5769 46.794 65.4725 46.5938 65.3234 46.4062C65.1785 46.2188 64.9825 46.0675 64.7353 45.9524C64.4882 45.8374 64.1856 45.7798 63.8277 45.7798C63.3461 45.7798 62.9413 45.8842 62.6132 46.093C62.2893 46.3018 62.1295 46.5724 62.1338 46.9048C62.1295 47.1903 62.2339 47.4226 62.447 47.6016C62.6643 47.7805 63.0223 47.9276 63.5208 48.0426L65.1956 48.4006C66.1245 48.6009 66.8149 48.9183 67.2666 49.353C67.7225 49.7876 67.9527 50.3565 67.9569 51.0597C67.9527 51.6776 67.7716 52.223 67.4136 52.696C67.0599 53.1648 66.5677 53.5312 65.937 53.7955C65.3064 54.0597 64.5819 54.1918 63.7637 54.1918C62.562 54.1918 61.5947 53.9403 60.8617 53.4375C60.1288 52.9304 59.692 52.2251 59.5514 51.3217L61.8078 51.1044C61.91 51.5476 62.1274 51.8821 62.4598 52.108C62.7921 52.3338 63.2247 52.4467 63.7573 52.4467C64.3071 52.4467 64.7481 52.3338 65.0805 52.108C65.4171 51.8821 65.5855 51.603 65.5855 51.2706C65.5855 50.9893 65.4768 50.7571 65.2595 50.5739C65.0464 50.3906 64.714 50.25 64.2623 50.152L62.5876 49.8004C61.6458 49.6044 60.9491 49.2741 60.4974 48.8097C60.0457 48.3409 59.822 47.7486 59.8262 47.0327C59.822 46.4276 59.986 45.9034 60.3184 45.4602C60.6551 45.0128 61.1217 44.6676 61.7183 44.4247C62.3191 44.1776 63.0116 44.054 63.7957 44.054C64.9463 44.054 65.8518 44.299 66.5123 44.7891C67.1771 45.2791 67.5883 45.9418 67.746 46.777Z" fill="white"/>
<path fill-rule="evenodd" clip-rule="evenodd" d="M87.1214 41.293L93.8285 48.0001L87.1214 54.7072L85.7072 53.293L90.0001 49.0001H77.4143V47.0001H90.0001L85.7072 42.7072L87.1214 41.293Z" fill="white"/>
</g>
<defs>
<clipPath id="clip0_402_38">
<rect width="109.414" height="96" fill="white" transform="translate(0.414307)"/>
</clipPath>
</defs>
</svg>
