<svg width="132" height="96" viewBox="0 0 132 96" fill="none" xmlns="http://www.w3.org/2000/svg">
<rect x="32" y="28" width="100" height="40" rx="8" fill="#3974B8"/>
<path d="M53.7273 54H49.2912V40.9091H53.8168C55.1165 40.9091 56.233 41.1712 57.1662 41.6953C58.1037 42.2152 58.8239 42.9631 59.3267 43.9389C59.8295 44.9148 60.081 46.0824 60.081 47.4418C60.081 48.8054 59.8274 49.9773 59.3203 50.9574C58.8175 51.9375 58.0909 52.6896 57.1406 53.2138C56.1946 53.7379 55.0568 54 53.7273 54ZM51.6626 51.9482H53.6122C54.5241 51.9482 55.2848 51.782 55.8942 51.4496C56.5036 51.1129 56.9616 50.6122 57.2685 49.9474C57.5753 49.2784 57.7287 48.4432 57.7287 47.4418C57.7287 46.4403 57.5753 45.6094 57.2685 44.9489C56.9616 44.2841 56.5078 43.7876 55.907 43.4595C55.3104 43.1271 54.5689 42.9609 53.6825 42.9609H51.6626V51.9482ZM66.5146 54.1918C65.5558 54.1918 64.7248 53.9808 64.0217 53.5589C63.3185 53.1371 62.7731 52.5469 62.3853 51.7884C62.0018 51.0298 61.81 50.1435 61.81 49.1293C61.81 48.1151 62.0018 47.2266 62.3853 46.4638C62.7731 45.701 63.3185 45.1087 64.0217 44.6868C64.7248 44.2649 65.5558 44.054 66.5146 44.054C67.4734 44.054 68.3043 44.2649 69.0075 44.6868C69.7106 45.1087 70.2539 45.701 70.6374 46.4638C71.0252 47.2266 71.2191 48.1151 71.2191 49.1293C71.2191 50.1435 71.0252 51.0298 70.6374 51.7884C70.2539 52.5469 69.7106 53.1371 69.0075 53.5589C68.3043 53.9808 67.4734 54.1918 66.5146 54.1918ZM66.5273 52.3381C67.0472 52.3381 67.4819 52.1953 67.8313 51.9098C68.1808 51.62 68.4407 51.2322 68.6112 50.7464C68.7859 50.2607 68.8732 49.7195 68.8732 49.1229C68.8732 48.522 68.7859 47.9787 68.6112 47.4929C68.4407 47.0028 68.1808 46.6129 67.8313 46.3232C67.4819 46.0334 67.0472 45.8885 66.5273 45.8885C65.9947 45.8885 65.5515 46.0334 65.1978 46.3232C64.8484 46.6129 64.5863 47.0028 64.4116 47.4929C64.2411 47.9787 64.1559 48.522 64.1559 49.1229C64.1559 49.7195 64.2411 50.2607 64.4116 50.7464C64.5863 51.2322 64.8484 51.62 65.1978 51.9098C65.5515 52.1953 65.9947 52.3381 66.5273 52.3381ZM77.4657 54.1918C76.4856 54.1918 75.644 53.9766 74.9409 53.5462C74.242 53.1158 73.7029 52.5213 73.3237 51.7628C72.9487 51 72.7612 50.1222 72.7612 49.1293C72.7612 48.1321 72.9529 47.2521 73.3365 46.4893C73.72 45.7223 74.2612 45.1257 74.96 44.6996C75.6632 44.2692 76.4941 44.054 77.4529 44.054C78.2498 44.054 78.9551 44.201 79.5687 44.495C80.1866 44.7848 80.6788 45.196 81.0453 45.7287C81.4118 46.2571 81.6206 46.875 81.6717 47.5824H79.4601C79.3706 47.1094 79.1575 46.7152 78.8208 46.3999C78.4885 46.0803 78.0431 45.9205 77.4849 45.9205C77.0119 45.9205 76.5964 46.0483 76.2385 46.304C75.8805 46.5554 75.6014 46.9176 75.4011 47.3906C75.2051 47.8636 75.1071 48.4304 75.1071 49.0909C75.1071 49.7599 75.2051 50.3352 75.4011 50.8168C75.5971 51.294 75.872 51.6626 76.2257 51.9226C76.5836 52.1783 77.0034 52.3061 77.4849 52.3061C77.8258 52.3061 78.1305 52.2422 78.399 52.1143C78.6717 51.9822 78.8997 51.7926 79.0829 51.5455C79.2662 51.2983 79.3919 50.9979 79.4601 50.6442H81.6717C81.6163 51.3388 81.4118 51.9545 81.0581 52.4915C80.7044 53.0241 80.2228 53.4418 79.6135 53.7443C79.0041 54.0426 78.2882 54.1918 77.4657 54.1918ZM91.3317 46.777L89.2223 47.0071C89.1626 46.794 89.0582 46.5938 88.9091 46.4062C88.7642 46.2188 88.5682 46.0675 88.321 45.9524C88.0739 45.8374 87.7713 45.7798 87.4134 45.7798C86.9318 45.7798 86.527 45.8842 86.1989 46.093C85.875 46.3018 85.7152 46.5724 85.7195 46.9048C85.7152 47.1903 85.8196 47.4226 86.0327 47.6016C86.25 47.7805 86.608 47.9276 87.1065 48.0426L88.7812 48.4006C89.7102 48.6009 90.4006 48.9183 90.8523 49.353C91.3082 49.7876 91.5384 50.3565 91.5426 51.0597C91.5384 51.6776 91.3572 52.223 90.9993 52.696C90.6456 53.1648 90.1534 53.5312 89.5227 53.7955C88.892 54.0597 88.1676 54.1918 87.3494 54.1918C86.1477 54.1918 85.1804 53.9403 84.4474 53.4375C83.7145 52.9304 83.2777 52.2251 83.1371 51.3217L85.3935 51.1044C85.4957 51.5476 85.7131 51.8821 86.0455 52.108C86.3778 52.3338 86.8104 52.4467 87.343 52.4467C87.8928 52.4467 88.3338 52.3338 88.6662 52.108C89.0028 51.8821 89.1712 51.603 89.1712 51.2706C89.1712 50.9893 89.0625 50.7571 88.8452 50.5739C88.6321 50.3906 88.2997 50.25 87.848 50.152L86.1733 49.8004C85.2315 49.6044 84.5348 49.2741 84.0831 48.8097C83.6314 48.3409 83.4077 47.7486 83.4119 47.0327C83.4077 46.4276 83.5717 45.9034 83.9041 45.4602C84.2408 45.0128 84.7074 44.6676 85.304 44.4247C85.9048 44.1776 86.5973 44.054 87.3814 44.054C88.532 44.054 89.4375 44.299 90.098 44.7891C90.7628 45.2791 91.174 45.9418 91.3317 46.777Z" fill="white"/>
<path d="M101 48H116M116 48L110 42M116 48L110 54" stroke="white" stroke-width="2"/>
</svg>
