<svg width="148" height="96" viewBox="0 0 148 96" fill="none" xmlns="http://www.w3.org/2000/svg">
<rect x="48" y="28" width="100" height="40" rx="8" fill="#3974B8"/>
<path d="M69.7273 54H65.2912V40.9091H69.8168C71.1165 40.9091 72.233 41.1712 73.1662 41.6953C74.1037 42.2152 74.8239 42.9631 75.3267 43.9389C75.8295 44.9148 76.081 46.0824 76.081 47.4418C76.081 48.8054 75.8274 49.9773 75.3203 50.9574C74.8175 51.9375 74.0909 52.6896 73.1406 53.2138C72.1946 53.7379 71.0568 54 69.7273 54ZM67.6626 51.9482H69.6122C70.5241 51.9482 71.2848 51.782 71.8942 51.4496C72.5036 51.1129 72.9616 50.6122 73.2685 49.9474C73.5753 49.2784 73.7287 48.4432 73.7287 47.4418C73.7287 46.4403 73.5753 45.6094 73.2685 44.9489C72.9616 44.2841 72.5078 43.7876 71.907 43.4595C71.3104 43.1271 70.5689 42.9609 69.6825 42.9609H67.6626V51.9482ZM82.5146 54.1918C81.5558 54.1918 80.7248 53.9808 80.0217 53.5589C79.3185 53.1371 78.7731 52.5469 78.3853 51.7884C78.0018 51.0298 77.81 50.1435 77.81 49.1293C77.81 48.1151 78.0018 47.2266 78.3853 46.4638C78.7731 45.701 79.3185 45.1087 80.0217 44.6868C80.7248 44.2649 81.5558 44.054 82.5146 44.054C83.4734 44.054 84.3043 44.2649 85.0075 44.6868C85.7106 45.1087 86.2539 45.701 86.6374 46.4638C87.0252 47.2266 87.2191 48.1151 87.2191 49.1293C87.2191 50.1435 87.0252 51.0298 86.6374 51.7884C86.2539 52.5469 85.7106 53.1371 85.0075 53.5589C84.3043 53.9808 83.4734 54.1918 82.5146 54.1918ZM82.5273 52.3381C83.0472 52.3381 83.4819 52.1953 83.8313 51.9098C84.1808 51.62 84.4407 51.2322 84.6112 50.7464C84.7859 50.2607 84.8732 49.7195 84.8732 49.1229C84.8732 48.522 84.7859 47.9787 84.6112 47.4929C84.4407 47.0028 84.1808 46.6129 83.8313 46.3232C83.4819 46.0334 83.0472 45.8885 82.5273 45.8885C81.9947 45.8885 81.5515 46.0334 81.1978 46.3232C80.8484 46.6129 80.5863 47.0028 80.4116 47.4929C80.2411 47.9787 80.1559 48.522 80.1559 49.1229C80.1559 49.7195 80.2411 50.2607 80.4116 50.7464C80.5863 51.2322 80.8484 51.62 81.1978 51.9098C81.5515 52.1953 81.9947 52.3381 82.5273 52.3381ZM93.4657 54.1918C92.4856 54.1918 91.644 53.9766 90.9409 53.5462C90.242 53.1158 89.7029 52.5213 89.3237 51.7628C88.9487 51 88.7612 50.1222 88.7612 49.1293C88.7612 48.1321 88.9529 47.2521 89.3365 46.4893C89.72 45.7223 90.2612 45.1257 90.96 44.6996C91.6632 44.2692 92.4941 44.054 93.4529 44.054C94.2498 44.054 94.9551 44.201 95.5687 44.495C96.1866 44.7848 96.6788 45.196 97.0453 45.7287C97.4118 46.2571 97.6206 46.875 97.6717 47.5824H95.4601C95.3706 47.1094 95.1575 46.7152 94.8208 46.3999C94.4885 46.0803 94.0431 45.9205 93.4849 45.9205C93.0119 45.9205 92.5964 46.0483 92.2385 46.304C91.8805 46.5554 91.6014 46.9176 91.4011 47.3906C91.2051 47.8636 91.1071 48.4304 91.1071 49.0909C91.1071 49.7599 91.2051 50.3352 91.4011 50.8168C91.5971 51.294 91.872 51.6626 92.2257 51.9226C92.5836 52.1783 93.0034 52.3061 93.4849 52.3061C93.8258 52.3061 94.1305 52.2422 94.399 52.1143C94.6717 51.9822 94.8997 51.7926 95.0829 51.5455C95.2662 51.2983 95.3919 50.9979 95.4601 50.6442H97.6717C97.6163 51.3388 97.4118 51.9545 97.0581 52.4915C96.7044 53.0241 96.2228 53.4418 95.6135 53.7443C95.0041 54.0426 94.2882 54.1918 93.4657 54.1918ZM107.332 46.777L105.222 47.0071C105.163 46.794 105.058 46.5938 104.909 46.4062C104.764 46.2188 104.568 46.0675 104.321 45.9524C104.074 45.8374 103.771 45.7798 103.413 45.7798C102.932 45.7798 102.527 45.8842 102.199 46.093C101.875 46.3018 101.715 46.5724 101.719 46.9048C101.715 47.1903 101.82 47.4226 102.033 47.6016C102.25 47.7805 102.608 47.9276 103.107 48.0426L104.781 48.4006C105.71 48.6009 106.401 48.9183 106.852 49.353C107.308 49.7876 107.538 50.3565 107.543 51.0597C107.538 51.6776 107.357 52.223 106.999 52.696C106.646 53.1648 106.153 53.5312 105.523 53.7955C104.892 54.0597 104.168 54.1918 103.349 54.1918C102.148 54.1918 101.18 53.9403 100.447 53.4375C99.7145 52.9304 99.2777 52.2251 99.1371 51.3217L101.393 51.1044C101.496 51.5476 101.713 51.8821 102.045 52.108C102.378 52.3338 102.81 52.4467 103.343 52.4467C103.893 52.4467 104.334 52.3338 104.666 52.108C105.003 51.8821 105.171 51.603 105.171 51.2706C105.171 50.9893 105.063 50.7571 104.845 50.5739C104.632 50.3906 104.3 50.25 103.848 50.152L102.173 49.8004C101.232 49.6044 100.535 49.2741 100.083 48.8097C99.6314 48.3409 99.4077 47.7486 99.4119 47.0327C99.4077 46.4276 99.5717 45.9034 99.9041 45.4602C100.241 45.0128 100.707 44.6676 101.304 44.4247C101.905 44.1776 102.597 44.054 103.381 44.054C104.532 44.054 105.438 44.299 106.098 44.7891C106.763 45.2791 107.174 45.9418 107.332 46.777Z" fill="white"/>
<path d="M117 48H132M132 48L126 42M132 48L126 54" stroke="white" stroke-width="2" stroke-linecap="square"/>
</svg>
