<svg width="110" height="96" viewBox="0 0 110 96" fill="none" xmlns="http://www.w3.org/2000/svg">
<rect x="8" y="28" width="102" height="40" rx="8" fill="#3974B8"/>
<path d="M29.7273 54H25.2912V40.9091H29.8168C31.1165 40.9091 32.233 41.1712 33.1662 41.6953C34.1037 42.2152 34.8239 42.9631 35.3267 43.9389C35.8295 44.9148 36.081 46.0824 36.081 47.4418C36.081 48.8054 35.8274 49.9773 35.3203 50.9574C34.8175 51.9375 34.0909 52.6896 33.1406 53.2138C32.1946 53.7379 31.0568 54 29.7273 54ZM27.6626 51.9482H29.6122C30.5241 51.9482 31.2848 51.782 31.8942 51.4496C32.5036 51.1129 32.9616 50.6122 33.2685 49.9474C33.5753 49.2784 33.7287 48.4432 33.7287 47.4418C33.7287 46.4403 33.5753 45.6094 33.2685 44.9489C32.9616 44.2841 32.5078 43.7876 31.907 43.4595C31.3104 43.1271 30.5689 42.9609 29.6825 42.9609H27.6626V51.9482ZM42.5146 54.1918C41.5558 54.1918 40.7248 53.9808 40.0217 53.5589C39.3185 53.1371 38.7731 52.5469 38.3853 51.7884C38.0018 51.0298 37.81 50.1435 37.81 49.1293C37.81 48.1151 38.0018 47.2266 38.3853 46.4638C38.7731 45.701 39.3185 45.1087 40.0217 44.6868C40.7248 44.2649 41.5558 44.054 42.5146 44.054C43.4734 44.054 44.3043 44.2649 45.0075 44.6868C45.7106 45.1087 46.2539 45.701 46.6374 46.4638C47.0252 47.2266 47.2191 48.1151 47.2191 49.1293C47.2191 50.1435 47.0252 51.0298 46.6374 51.7884C46.2539 52.5469 45.7106 53.1371 45.0075 53.5589C44.3043 53.9808 43.4734 54.1918 42.5146 54.1918ZM42.5273 52.3381C43.0472 52.3381 43.4819 52.1953 43.8313 51.9098C44.1808 51.62 44.4407 51.2322 44.6112 50.7464C44.7859 50.2607 44.8732 49.7195 44.8732 49.1229C44.8732 48.522 44.7859 47.9787 44.6112 47.4929C44.4407 47.0028 44.1808 46.6129 43.8313 46.3232C43.4819 46.0334 43.0472 45.8885 42.5273 45.8885C41.9947 45.8885 41.5515 46.0334 41.1978 46.3232C40.8484 46.6129 40.5863 47.0028 40.4116 47.4929C40.2411 47.9787 40.1559 48.522 40.1559 49.1229C40.1559 49.7195 40.2411 50.2607 40.4116 50.7464C40.5863 51.2322 40.8484 51.62 41.1978 51.9098C41.5515 52.1953 41.9947 52.3381 42.5273 52.3381ZM53.4657 54.1918C52.4856 54.1918 51.644 53.9766 50.9409 53.5462C50.242 53.1158 49.7029 52.5213 49.3237 51.7628C48.9487 51 48.7612 50.1222 48.7612 49.1293C48.7612 48.1321 48.9529 47.2521 49.3365 46.4893C49.72 45.7223 50.2612 45.1257 50.96 44.6996C51.6632 44.2692 52.4941 44.054 53.4529 44.054C54.2498 44.054 54.9551 44.201 55.5687 44.495C56.1866 44.7848 56.6788 45.196 57.0453 45.7287C57.4118 46.2571 57.6206 46.875 57.6717 47.5824H55.4601C55.3706 47.1094 55.1575 46.7152 54.8208 46.3999C54.4885 46.0803 54.0431 45.9205 53.4849 45.9205C53.0119 45.9205 52.5964 46.0483 52.2385 46.304C51.8805 46.5554 51.6014 46.9176 51.4011 47.3906C51.2051 47.8636 51.1071 48.4304 51.1071 49.0909C51.1071 49.7599 51.2051 50.3352 51.4011 50.8168C51.5971 51.294 51.872 51.6626 52.2257 51.9226C52.5836 52.1783 53.0034 52.3061 53.4849 52.3061C53.8258 52.3061 54.1305 52.2422 54.399 52.1143C54.6717 51.9822 54.8997 51.7926 55.0829 51.5455C55.2662 51.2983 55.3919 50.9979 55.4601 50.6442H57.6717C57.6163 51.3388 57.4118 51.9545 57.0581 52.4915C56.7044 53.0241 56.2228 53.4418 55.6135 53.7443C55.0041 54.0426 54.2882 54.1918 53.4657 54.1918ZM67.3317 46.777L65.2223 47.0071C65.1626 46.794 65.0582 46.5938 64.9091 46.4062C64.7642 46.2188 64.5682 46.0675 64.321 45.9524C64.0739 45.8374 63.7713 45.7798 63.4134 45.7798C62.9318 45.7798 62.527 45.8842 62.1989 46.093C61.875 46.3018 61.7152 46.5724 61.7195 46.9048C61.7152 47.1903 61.8196 47.4226 62.0327 47.6016C62.25 47.7805 62.608 47.9276 63.1065 48.0426L64.7812 48.4006C65.7102 48.6009 66.4006 48.9183 66.8523 49.353C67.3082 49.7876 67.5384 50.3565 67.5426 51.0597C67.5384 51.6776 67.3572 52.223 66.9993 52.696C66.6456 53.1648 66.1534 53.5312 65.5227 53.7955C64.892 54.0597 64.1676 54.1918 63.3494 54.1918C62.1477 54.1918 61.1804 53.9403 60.4474 53.4375C59.7145 52.9304 59.2777 52.2251 59.1371 51.3217L61.3935 51.1044C61.4957 51.5476 61.7131 51.8821 62.0455 52.108C62.3778 52.3338 62.8104 52.4467 63.343 52.4467C63.8928 52.4467 64.3338 52.3338 64.6662 52.108C65.0028 51.8821 65.1712 51.603 65.1712 51.2706C65.1712 50.9893 65.0625 50.7571 64.8452 50.5739C64.6321 50.3906 64.2997 50.25 63.848 50.152L62.1733 49.8004C61.2315 49.6044 60.5348 49.2741 60.0831 48.8097C59.6314 48.3409 59.4077 47.7486 59.4119 47.0327C59.4077 46.4276 59.5717 45.9034 59.9041 45.4602C60.2408 45.0128 60.7074 44.6676 61.304 44.4247C61.9048 44.1776 62.5973 44.054 63.3814 44.054C64.532 44.054 65.4375 44.299 66.098 44.7891C66.7628 45.2791 67.174 45.9418 67.3317 46.777Z" fill="white"/>
<path d="M77 48H92M92 48L86 42M92 48L86 54" stroke="white" stroke-width="2"/>
</svg>
