<svg width="98" height="32" viewBox="0 0 98 32" fill="none" xmlns="http://www.w3.org/2000/svg">
<path d="M7.91807 2L4.79248 13.6594L12.747 15.7885L13.7405 12.0835L27.868 15.8697L30 7.91805L7.91807 2Z" fill="#FFC700"/>
<path d="M18.2594 19.913L4.13201 16.127L2 24.0814L24.0819 29.9994L27.2074 18.3401L19.253 16.2081L18.2594 19.913Z" fill="#3974B8"/>
<path d="M40.8482 12.92C41.2642 12.104 41.8402 11.464 42.5762 11C43.3282 10.536 44.1682 10.304 45.0962 10.304V13.256C43.8002 13.256 42.7682 13.6 42.0002 14.288C41.2322 14.976 40.8482 15.904 40.8482 17.072V23H37.3442V10.592H40.8482V12.92ZM52.6261 23.288C51.4101 23.288 50.2821 23 49.2421 22.424C48.2021 21.832 47.3781 21.04 46.7701 20.048C46.1621 19.04 45.8581 17.952 45.8581 16.784C45.8581 15.616 46.1621 14.536 46.7701 13.544C47.3781 12.552 48.2021 11.768 49.2421 11.192C50.2821 10.6 51.4101 10.304 52.6261 10.304C53.8421 10.304 54.9701 10.6 56.0101 11.192C57.0501 11.768 57.8741 12.552 58.4821 13.544C59.0901 14.536 59.3941 15.616 59.3941 16.784C59.3941 17.952 59.0901 19.04 58.4821 20.048C57.8741 21.04 57.0501 21.832 56.0101 22.424C54.9701 23 53.8421 23.288 52.6261 23.288ZM52.6261 20.336C53.2341 20.336 53.8021 20.176 54.3301 19.856C54.8581 19.536 55.2741 19.104 55.5781 18.56C55.8821 18.016 56.0341 17.424 56.0341 16.784C56.0341 16.144 55.8821 15.56 55.5781 15.032C55.2741 14.488 54.8581 14.056 54.3301 13.736C53.8021 13.416 53.2341 13.256 52.6261 13.256C52.0181 13.256 51.4501 13.416 50.9221 13.736C50.3941 14.056 49.9781 14.488 49.6741 15.032C49.3701 15.56 49.2181 16.144 49.2181 16.784C49.2181 17.424 49.3701 18.016 49.6741 18.56C49.9781 19.104 50.3941 19.536 50.9221 19.856C51.4501 20.176 52.0181 20.336 52.6261 20.336ZM63.4082 23.288C62.7842 23.288 62.2562 23.072 61.8242 22.64C61.4082 22.208 61.2002 21.68 61.2002 21.056C61.2002 20.48 61.4162 19.984 61.8482 19.568C62.2802 19.136 62.8002 18.92 63.4082 18.92C63.9842 18.92 64.4802 19.136 64.8962 19.568C65.3282 19.984 65.5442 20.48 65.5442 21.056C65.5442 21.664 65.3362 22.192 64.9202 22.64C64.5042 23.072 64.0002 23.288 63.4082 23.288Z" fill="#FFC700"/>
<path d="M75.9417 10.304C77.0297 10.304 78.0057 10.584 78.8697 11.144C79.7337 11.688 80.4057 12.456 80.8857 13.448C81.3817 14.424 81.6297 15.536 81.6297 16.784C81.6297 18.032 81.3817 19.152 80.8857 20.144C80.4057 21.136 79.7337 21.912 78.8697 22.472C78.0057 23.016 77.0297 23.288 75.9417 23.288C75.0937 23.288 74.3097 23.112 73.5897 22.76C72.8697 22.392 72.2617 21.888 71.7657 21.248V27.128H68.2617V10.592H71.7657V12.344C72.2617 11.704 72.8697 11.208 73.5897 10.856C74.3097 10.488 75.0937 10.304 75.9417 10.304ZM74.9337 20.336C75.8937 20.336 76.6777 20.008 77.2857 19.352C77.9097 18.68 78.2217 17.824 78.2217 16.784C78.2217 15.76 77.9097 14.92 77.2857 14.264C76.6777 13.592 75.8937 13.256 74.9337 13.256C74.0057 13.256 73.2457 13.584 72.6537 14.24C72.0617 14.896 71.7657 15.744 71.7657 16.784C71.7657 17.824 72.0617 18.68 72.6537 19.352C73.2457 20.008 74.0057 20.336 74.9337 20.336ZM85.6969 27.32C85.1849 27.32 84.6409 27.248 84.0649 27.104C83.5049 26.96 83.0169 26.776 82.6009 26.552L83.3449 24.152C83.6329 24.312 83.9209 24.44 84.2089 24.536C84.5129 24.648 84.7689 24.704 84.9769 24.704C85.3129 24.704 85.6169 24.632 85.8889 24.488C86.1609 24.344 86.3769 24.128 86.5369 23.84L86.8729 23.12L81.7129 10.592H85.3369L88.6009 19.304L91.6729 10.592H95.2489L90.1849 23.624C89.7049 24.84 89.0809 25.76 88.3129 26.384C87.5609 27.008 86.6889 27.32 85.6969 27.32Z" fill="#3974B8"/>
</svg>
